<?xml version="1.0" encoding="UTF-8"?>
<svg version="1.1" xmlns="http://www.w3.org/2000/svg" width="1024" height="1024">
<path d="M0 0 C337.92 0 675.84 0 1024 0 C1024 337.92 1024 675.84 1024 1024 C686.08 1024 348.16 1024 0 1024 C0 686.08 0 348.16 0 0 Z " fill="#FBFDFE" transform="translate(0,0)"/>
<path d="M0 0 C7.81654118 5.28998241 10.95274793 11.12805784 14.8125 19.8125 C14.8125 33.0125 14.8125 46.2125 14.8125 59.8125 C88.0725 59.8125 161.3325 59.8125 236.8125 59.8125 C236.8125 47.6025 236.8125 35.3925 236.8125 22.8125 C240.32188505 11.11454983 244.47033593 4.25444118 254.8125 -2.1875 C262.26163305 -5.91206653 271.44431812 -6.42022533 279.375 -4 C289.02623632 -0.37449209 296.36315549 5.50133244 301 14.82421875 C304.17758121 23.09339402 303.2289422 32.22911867 303.0625 40.9375 C303.04240356 42.77081382 303.02415835 44.60414891 303.0078125 46.4375 C302.96406736 50.89636523 302.89521439 55.35419438 302.8125 59.8125 C303.46379379 59.80583817 304.11508759 59.79917633 304.78611755 59.79231262 C311.64975985 59.72522807 318.51330699 59.68040065 325.37719727 59.64770508 C327.92866813 59.63274657 330.48011386 59.61237245 333.03149414 59.58618164 C362.17813298 59.29477239 389.73757362 62.7355171 411.68725586 83.68115234 C413.07537557 85.04512472 414.44440136 86.42844686 415.8125 87.8125 C416.55242188 88.54210937 417.29234375 89.27171875 418.0546875 90.0234375 C433.26739575 105.94646675 441.02034086 129.17204405 440.93275452 150.90538025 C440.93360894 151.69131972 440.93446337 152.4772592 440.93534368 153.28701502 C440.93698296 155.90482726 440.93150266 158.52257458 440.92602539 161.14038086 C440.92574316 163.02316283 440.92590196 164.9059449 440.9264679 166.78872681 C440.92675446 171.88939896 440.92088046 176.99004753 440.91389394 182.09071422 C440.90763699 187.42518541 440.90705475 192.75965717 440.90586853 198.09413147 C440.90276212 208.19099583 440.89455803 218.28784935 440.88451904 228.38470894 C440.87333647 239.88162809 440.86784205 251.37854776 440.86282361 262.875471 C440.85237485 286.52115334 440.83478877 310.16682606 440.8125 333.8125 C439.5322998 333.9264209 438.25209961 334.0403418 436.93310547 334.15771484 C435.22358661 334.32080552 433.51411643 334.48440698 431.8046875 334.6484375 C430.96446045 334.7218335 430.1242334 334.79522949 429.25854492 334.87084961 C413.44644813 336.42525912 398.66977799 344.77035601 387.203125 355.5625 C385.8125 356.8125 385.8125 356.8125 384.8125 356.8125 C384.4825 302.3625 384.1525 247.9125 383.8125 191.8125 C213.8625 191.8125 43.9125 191.8125 -131.1875 191.8125 C-131.249375 242.055 -131.31125 292.2975 -131.375 344.0625 C-131.40231201 359.92860352 -131.42962402 375.79470703 -131.45776367 392.14160156 C-131.46779677 406.35983179 -131.46779677 406.35983179 -131.47383118 420.57806396 C-131.47662689 426.91257064 -131.48762341 433.2469978 -131.50422668 439.58148193 C-131.52335868 446.89156486 -131.53199942 454.20157161 -131.52783485 461.51167975 C-131.52603203 465.24899612 -131.52883739 468.98614234 -131.54514539 472.7234273 C-131.56253556 476.73323162 -131.55645692 480.74266879 -131.54826355 484.75250244 C-131.55700154 485.90784359 -131.56573954 487.06318474 -131.57474232 488.25353622 C-131.47296454 506.83044306 -124.46388463 523.00756187 -111.875 536.5625 C-101.09379939 546.71094391 -87.20830164 551.87236132 -72.45474243 551.97071838 C-71.33582611 551.9805072 -70.21690979 551.99029602 -69.06408691 552.00038147 C-67.85136108 552.00613693 -66.63863525 552.0118924 -65.38916016 552.01782227 C-64.10081268 552.02772186 -62.81246521 552.03762146 -61.4850769 552.04782104 C-57.96490288 552.07476216 -54.4447156 552.09582985 -50.92449617 552.11582303 C-47.24093007 552.13774949 -43.55740433 552.16510548 -39.87387085 552.19187927 C-32.90423043 552.24171637 -25.9345675 552.28668837 -18.96488321 552.32990164 C-11.02774632 552.37935097 -3.09064995 552.43424047 4.84644771 552.48958123 C21.16842775 552.6032633 37.49044499 552.71013212 53.8125 552.8125 C53.93657227 554.03211426 54.06064453 555.25172852 54.18847656 556.50830078 C54.35976198 558.13316588 54.53132628 559.75800159 54.703125 561.3828125 C54.78385254 562.18372314 54.86458008 562.98463379 54.94775391 563.80981445 C56.61501817 579.37888691 62.7759201 592.87401112 72.8125 604.8125 C74.14783256 606.47756532 75.48138697 608.14405951 76.8125 609.8125 C55.93212409 609.85933064 35.05175691 609.89454289 14.17133904 609.91612434 C4.47504795 609.92641369 -5.2212104 609.94042899 -14.91748047 609.96337891 C-23.37396133 609.98338476 -31.83041847 609.99623344 -40.28692234 610.00067699 C-44.75982469 610.00327224 -49.23265921 610.0093228 -53.7055397 610.02396011 C-57.92603763 610.03765803 -62.14644057 610.04169829 -66.36695862 610.03871536 C-67.90591322 610.03926012 -69.44487141 610.04316418 -70.98380661 610.05091095 C-101.648823 610.19754344 -130.62823522 600.2372563 -153.1875 578.8125 C-153.1875 578.1525 -153.1875 577.4925 -153.1875 576.8125 C-153.8475 576.8125 -154.5075 576.8125 -155.1875 576.8125 C-173.57336377 559.99361325 -187.03114986 531.14318437 -188.37425303 506.36754858 C-188.45020249 502.37729926 -188.46418238 498.38958267 -188.45492554 494.39888 C-188.45866819 492.85811189 -188.46327215 491.31734567 -188.46865618 489.77658242 C-188.4808256 485.56811443 -188.48063291 481.3597263 -188.47826743 477.15124476 C-188.47785772 472.60233833 -188.48891303 468.05345698 -188.49838257 463.50456238 C-188.51496018 454.60189276 -188.52049064 445.69924963 -188.52160732 436.79656587 C-188.52255932 429.55630547 -188.52667719 422.31605377 -188.53300858 415.07579613 C-188.55061203 394.52559633 -188.55984883 373.97541737 -188.55834763 353.42520998 C-188.55822776 351.76513997 -188.55822776 351.76513997 -188.55810547 350.0715332 C-188.55802371 348.96346076 -188.55794195 347.85538832 -188.55785771 346.71373793 C-188.55704503 328.76119973 -188.57618048 310.80874547 -188.6043822 292.85623155 C-188.63314461 274.40043754 -188.64692065 255.94468444 -188.64519465 237.48886746 C-188.64453192 227.13628828 -188.64997304 216.78379711 -188.67155075 206.43123817 C-188.68980674 197.61624472 -188.69407368 188.80137918 -188.6805319 179.98637495 C-188.67402455 175.49421068 -188.67380378 171.00229151 -188.6912384 166.51015091 C-188.70707365 162.387478 -188.70400023 158.26524238 -188.68667014 154.14257946 C-188.68362306 152.66147391 -188.68714479 151.18033485 -188.69839029 149.69926886 C-188.79337767 136.28694918 -186.55406729 123.24388103 -180.5625 111.125 C-180.05589844 110.07711304 -180.05589844 110.07711304 -179.5390625 109.00805664 C-168.76448074 87.61260657 -149.82094396 72.92900176 -127.73046875 64.4921875 C-116.03111974 60.67256932 -104.35686864 59.50367222 -92.10546875 59.6171875 C-90.92527664 59.6200174 -89.74508453 59.62284729 -88.52912903 59.62576294 C-84.81097671 59.63683378 -81.09307779 59.66191302 -77.375 59.6875 C-74.8326858 59.69754675 -72.29036778 59.70666961 -69.74804688 59.71484375 C-63.56111349 59.73673 -57.37432486 59.77007408 -51.1875 59.8125 C-51.20844727 58.67820557 -51.22939453 57.54391113 -51.25097656 56.37524414 C-51.32385503 52.13172227 -51.3694722 47.88825474 -51.40722656 43.64428711 C-51.42723374 41.81411407 -51.45444851 39.98400408 -51.48925781 38.15405273 C-51.53826003 35.51009488 -51.56057761 32.86698835 -51.578125 30.22265625 C-51.59877014 29.41603043 -51.61941528 28.6094046 -51.64068604 27.77833557 C-51.64425724 18.55694299 -47.49674653 10.44350411 -41.1875 3.8125 C-28.54070335 -6.55834252 -14.41596613 -8.22182269 0 0 Z " fill="#72B9F9" transform="translate(386.1875,175.1875)"/>
<path d="M0 0 C7.28614172 5.16101705 13.58707704 11.88384083 15.8125 20.7109375 C17.04568996 31.65982032 16.20093256 41.7958839 9.17317295 50.81470966 C1.04777958 59.72806798 -7.53270344 68.19627352 -16.06469727 76.7175293 C-17.8758883 78.53007704 -19.6868669 80.34283709 -21.49765015 82.15579224 C-25.88674288 86.54895608 -30.27815279 90.93979152 -34.67073578 95.32946523 C-38.24256441 98.89902691 -41.81340539 102.46957386 -45.38355827 106.04081154 C-45.89347091 106.55087741 -46.40338355 107.06094328 -46.92874808 107.58646569 C-47.96489565 108.62293301 -49.00104098 109.65940256 -50.03718411 110.69587431 C-59.72983604 120.39137087 -69.42553849 130.08381214 -79.12230425 139.77519409 C-87.42987265 148.07829268 -95.73481208 156.38401324 -104.0378418 164.69165039 C-113.69985631 174.359024 -123.36350061 184.02476367 -133.02972835 193.68792468 C-134.06157348 194.71945129 -135.09341654 195.75097997 -136.12525749 196.78251076 C-136.63283731 197.2899363 -137.14041712 197.79736183 -137.66337814 198.3201639 C-141.22834131 201.88426613 -144.79214793 205.44952225 -148.35550117 209.01523399 C-153.15563792 213.81847827 -157.9584369 218.61904511 -162.76301193 223.41785049 C-164.5230544 225.17657357 -166.28225176 226.93614287 -168.04052925 228.69663048 C-170.4456119 231.10445686 -172.85377179 233.50916411 -175.26271057 235.91313171 C-175.9530942 236.60574606 -176.64347782 237.29836041 -177.35478216 238.01196307 C-181.26868536 241.91027926 -185.2886272 245.62595824 -189.47911781 249.22595608 C-191.63167208 251.09702633 -193.64572201 253.07649366 -195.640625 255.11401367 C-196.4150293 255.90140427 -197.18943359 256.68879486 -197.98730469 257.50004578 C-198.79586914 258.32631973 -199.60443359 259.15259369 -200.4375 260.00390625 C-202.19746924 261.78624921 -203.95789981 263.56813674 -205.71875 265.34960938 C-208.46177694 268.12977737 -211.2016009 270.91284304 -213.93359375 273.70385742 C-216.59239349 276.41725411 -219.26381787 279.11768347 -221.9375 281.81640625 C-222.74606445 282.6487529 -223.55462891 283.48109955 -224.38769531 284.33866882 C-232.22080333 292.20748097 -240.63175709 296.98516059 -252 297.0234375 C-267.55556812 296.7456595 -276.79768277 288.59362511 -287.25 277.7734375 C-293.90068643 270.88191037 -293.90068643 270.88191037 -300.96484375 264.42578125 C-307.86926303 258.51698356 -314.10324028 251.84741825 -320.48779297 245.39013672 C-329.18514078 236.58328515 -329.18514078 236.58328515 -338.36767578 228.29052734 C-341.84842057 225.26927449 -345.10464878 222.01875254 -348.375 218.7734375 C-349.06013672 218.10892578 -349.74527344 217.44441406 -350.45117188 216.75976562 C-358.54082304 208.73240243 -364.18501999 199.92608129 -364.5625 188.2734375 C-364.21297131 178.23497339 -360.88721132 170.22863683 -354.1875 162.7109375 C-347.31097201 156.75044334 -338.83607017 152.99353433 -329.640625 153.36328125 C-317.00900014 155.15343191 -308.75778325 161.95785157 -299.8125 170.4609375 C-299.13767578 171.09708984 -298.46285156 171.73324219 -297.76757812 172.38867188 C-291.54928558 178.28836938 -285.48977797 184.34561048 -279.47900391 190.45605469 C-275.46810781 194.51556214 -271.35907197 198.35357608 -267.03125 202.07226562 C-263.82915671 204.91819388 -260.93665923 208.05888951 -258.05859375 211.23046875 C-256.58130926 212.83306749 -256.58130926 212.83306749 -254.1875 214.7109375 C-250.70768347 214.40634173 -249.00208873 212.8979815 -246.59303856 210.48003292 C-245.89311204 209.78484615 -245.19318553 209.08965938 -244.47204912 208.37340635 C-243.71076601 207.60202048 -242.94948291 206.83063461 -242.16513062 206.03587341 C-241.35049713 205.22239207 -240.53586364 204.40891072 -239.69654429 203.57077843 C-237.43505084 201.30949878 -235.18043331 199.04161077 -232.92850065 196.77081692 C-230.49906217 194.32433114 -228.06094688 191.8865205 -225.62382507 189.44769287 C-221.40167036 185.22028632 -217.18494002 180.98753095 -212.97172165 176.7512188 C-206.87891528 170.62520685 -200.77691204 164.50842277 -194.67241772 158.39406014 C-184.76735081 148.47266526 -174.86827132 138.54532001 -164.97363281 128.61352539 C-164.08511424 127.72167513 -164.08511424 127.72167513 -163.1786458 126.8118077 C-160.77828315 124.40242871 -158.3779303 121.99303996 -155.97759148 119.58363723 C-149.36624375 112.94744643 -142.75370209 106.31244595 -136.140625 99.67797852 C-135.54839458 99.08382912 -134.95616416 98.48967972 -134.34598736 97.8775258 C-124.48430232 87.98417268 -114.61865087 78.09478247 -104.75055373 68.20782524 C-98.6594432 62.10461983 -92.5722262 55.99757737 -86.48992623 49.88559128 C-82.32602806 45.70175343 -78.15871697 41.52133668 -73.98866151 37.34363585 C-71.57977198 34.93005339 -69.1726192 32.5147983 -66.76978493 30.09518623 C-64.16969115 27.47856078 -61.56361773 24.86804415 -58.9559021 22.25901794 C-57.80728528 21.09859306 -57.80728528 21.09859306 -56.63546407 19.91472524 C-55.94075305 19.22214622 -55.24604203 18.5295672 -54.53027916 17.81600094 C-53.62789861 16.9100419 -53.62789861 16.9100419 -52.70728815 15.98578066 C-51.1875 14.7109375 -51.1875 14.7109375 -49.1875 14.7109375 C-49.1875 14.0509375 -49.1875 13.3909375 -49.1875 12.7109375 C-47.35951152 10.86870496 -45.37918208 9.25386496 -43.39453125 7.58203125 C-42.04960701 6.44182115 -40.72718454 5.27337921 -39.44921875 4.05859375 C-28.67127884 -6.05054798 -12.7742855 -7.52770395 0 0 Z " fill="#25507F" transform="translate(839.1875,546.2890625)"/>
<path d="M0 0 C1.42230927 -0.0099852 1.42230927 -0.0099852 2.87335205 -0.02017212 C4.87713691 -0.03028018 6.8809553 -0.03498971 8.88476562 -0.03466797 C11.92896001 -0.03902789 14.97168815 -0.07533061 18.015625 -0.11328125 C19.96874508 -0.11915267 21.921872 -0.12311989 23.875 -0.125 C25.22546417 -0.14655655 25.22546417 -0.14655655 26.60321045 -0.16854858 C33.85908079 -0.1168792 39.99242705 1.58466508 45.578125 6.37109375 C46.3825 7.37462891 46.3825 7.37462891 47.203125 8.3984375 C47.76 9.07003906 48.316875 9.74164063 48.890625 10.43359375 C51.29519253 13.91878538 51.32556223 16.89237639 51.31665039 21.00073242 C51.31657486 22.16170944 51.31649933 23.32268646 51.31642151 24.5188446 C51.31126022 25.77203995 51.30609894 27.02523529 51.30078125 28.31640625 C51.29865883 30.24109489 51.29865883 30.24109489 51.29649353 32.20466614 C51.29267905 35.61263991 51.28285791 39.02057093 51.27178955 42.42852783 C51.26155243 45.90742413 51.25699098 49.38632735 51.25195312 52.86523438 C51.24123467 59.68881962 51.22417109 66.51237651 51.203125 73.3359375 C51.96210083 73.32261383 52.72107666 73.30929016 53.50305176 73.29556274 C60.68195487 73.17496587 67.86036177 73.083803 75.04001617 73.02506447 C78.7305702 72.99384978 82.42028212 72.95156327 86.11035156 72.88330078 C89.6765918 72.8177475 93.24202606 72.7821574 96.80882263 72.76667404 C98.82077653 72.75031386 100.83240944 72.70353175 102.84387207 72.65615845 C109.57328926 72.65370038 114.49442812 72.85169712 119.59684753 77.53289795 C125.61823288 84.29187712 126.96545576 89.45548921 126.90234375 98.484375 C126.91307671 100.06322983 126.91307671 100.06322983 126.92402649 101.67398071 C126.9317786 103.89104369 126.92684448 106.10818345 126.90991211 108.32519531 C126.89071667 111.6948446 126.93008175 115.06034855 126.97460938 118.4296875 C126.97489984 120.59375243 126.9717571 122.75782109 126.96484375 124.921875 C126.98012619 125.9169809 126.99540863 126.91208679 127.01115417 127.93734741 C126.89005838 135.3059584 124.84576549 140.5699751 120.203125 146.3359375 C115.0906808 150.5086238 109.84236256 151.4634141 103.42480469 151.44946289 C102.2639032 151.44938736 101.10300171 151.44931183 99.90692139 151.44923401 C98.0348703 151.44149208 98.0348703 151.44149208 96.125 151.43359375 C94.20243378 151.43147133 94.20243378 151.43147133 92.24102783 151.42930603 C88.8412886 151.42549651 85.4415924 151.41567964 82.04187012 151.40460205 C78.569586 151.39435424 75.0972949 151.3898012 71.625 151.38476562 C64.81769071 151.37405591 58.01040992 151.35699834 51.203125 151.3359375 C51.21311775 152.38377159 51.21311775 152.38377159 51.22331238 153.45277405 C51.28359469 160.05809856 51.32918596 166.66334553 51.35856152 173.26888371 C51.3741719 176.66432052 51.39532432 180.05952871 51.42944336 183.45483398 C51.46848114 187.36439209 51.48287253 191.27385982 51.49609375 195.18359375 C51.51157761 196.39427017 51.52706146 197.60494659 51.54301453 198.85231018 C51.5445631 206.64770234 50.61460127 211.34772675 46.578125 218.0234375 C40.34961117 224.08804308 32.89219131 224.93951759 24.54296875 224.8671875 C23.05900352 224.87292786 23.05900352 224.87292786 21.5450592 224.87878418 C19.46679661 224.88149013 17.38849919 224.87422191 15.31030273 224.85742188 C12.14554393 224.83597084 8.98304906 224.85728091 5.81835938 224.8828125 C3.78905754 224.88016944 1.7597571 224.8750449 -0.26953125 224.8671875 C-1.20620132 224.87528442 -2.1428714 224.88338135 -3.10792542 224.89172363 C-9.14772066 224.80628268 -13.7522454 223.77074364 -18.796875 220.3359375 C-20.85546875 218.08203125 -20.85546875 218.08203125 -22.234375 215.7734375 C-22.70746094 215.00902344 -23.18054688 214.24460937 -23.66796875 213.45703125 C-25.63687254 209.75767222 -25.91950725 206.88834735 -25.91040039 202.76293945 C-25.91028709 201.05150505 -25.91028709 201.05150505 -25.91017151 199.30549622 C-25.90501022 198.07417465 -25.89984894 196.84285309 -25.89453125 195.57421875 C-25.8931163 194.31328903 -25.89170135 193.05235931 -25.89024353 191.7532196 C-25.88559075 188.40442041 -25.87660842 185.05568939 -25.86553955 181.70690918 C-25.85530187 178.28833607 -25.85074086 174.86975591 -25.84570312 171.45117188 C-25.83466599 164.74607489 -25.81792186 158.04101013 -25.796875 151.3359375 C-26.53079468 151.34481995 -27.26471436 151.35370239 -28.02087402 151.362854 C-34.96431154 151.44326696 -41.90767874 151.50403699 -48.85146332 151.54318619 C-52.42071019 151.56399065 -55.98956974 151.59217519 -59.55859375 151.63769531 C-63.00807966 151.6814115 -66.45719492 151.70512821 -69.90693665 151.71544647 C-71.85226682 151.72634755 -73.79744952 151.75753216 -75.74255371 151.78912354 C-83.38549427 151.79104677 -89.51649903 151.43535758 -95.30847168 145.88824463 C-99.07591958 141.598805 -101.03682992 138.09641595 -101.08740234 132.40307617 C-101.10016205 131.42493454 -101.11292175 130.44679291 -101.12606812 129.43901062 C-101.12829376 128.38792618 -101.13051941 127.33684174 -101.1328125 126.25390625 C-101.1394693 125.16636551 -101.1461261 124.07882477 -101.15298462 122.95832825 C-101.16310705 120.65770152 -101.16780177 118.35704546 -101.16748047 116.05639648 C-101.17184586 112.54686707 -101.20814998 109.03860318 -101.24609375 105.52929688 C-101.2519636 103.29167096 -101.25593187 101.05403908 -101.2578125 98.81640625 C-101.27218353 97.7713945 -101.28655457 96.72638275 -101.30136108 95.64970398 C-101.25567484 88.31706113 -100.09813206 83.83220552 -94.9453125 78.375 C-94.06746094 77.67503906 -94.06746094 77.67503906 -93.171875 76.9609375 C-92.58148438 76.47882813 -91.99109375 75.99671875 -91.3828125 75.5 C-88.1366717 73.11736463 -85.86625628 73.21433956 -81.87841797 73.22241211 C-80.01671463 73.22252541 -80.01671463 73.22252541 -78.11740112 73.22264099 C-76.75795451 73.227748 -75.39850831 73.232964 -74.0390625 73.23828125 C-72.65186616 73.24014608 -71.26466916 73.24156968 -69.87747192 73.24256897 C-66.22452988 73.24638902 -62.57162752 73.25621495 -58.91870117 73.26727295 C-55.19189999 73.27749806 -51.46509241 73.28206895 -47.73828125 73.28710938 C-40.42446106 73.29783767 -33.11067359 73.31490796 -25.796875 73.3359375 C-25.80575745 72.63960205 -25.81463989 71.9432666 -25.8237915 71.22583008 C-25.90422932 64.63556884 -25.96498659 58.04544634 -26.00412369 51.45480347 C-26.02492171 48.06714792 -26.05309387 44.67990094 -26.09863281 41.29248047 C-26.14732193 37.39019104 -26.16988429 33.48847598 -26.1875 29.5859375 C-26.20814514 28.38042236 -26.22879028 27.17490723 -26.25006104 25.93286133 C-26.25216228 18.00022725 -25.38418193 12.49304039 -20.05078125 6.3125 C-19.49261719 5.86648438 -18.93445313 5.42046875 -18.359375 4.9609375 C-17.80378906 4.49945313 -17.24820313 4.03796875 -16.67578125 3.5625 C-11.26252328 0.02868918 -6.27589958 0.01537631 0 0 Z " fill="#72B9F9" transform="translate(499.796875,426.6640625)"/>
<path d="M0 0 C6.79501016 6.21258072 10.80115738 13.17495218 11.38546753 22.48924255 C11.59764911 28.10378963 11.58359961 33.71824927 11.56640625 39.3359375 C11.57164914 41.42282385 11.57792805 43.50970783 11.58518982 45.59658813 C11.595566 49.9590372 11.59107326 54.32115951 11.57641602 58.68359375 C11.55924418 64.24716555 11.58271905 69.80970296 11.61790562 75.37315941 C11.63997065 79.68003049 11.63841594 83.98665762 11.6301403 88.29356766 C11.62932555 90.34348306 11.63609697 92.39341724 11.65091133 94.44327927 C11.72842898 107.11059257 11.53192451 117.37249905 3.82421875 128 C-2.41423709 133.83928591 -8.24315983 138.32639691 -17 139 C-18.29550781 139.11214844 -18.29550781 139.11214844 -19.6171875 139.2265625 C-29.7381296 139.72603756 -38.39044809 136.77389396 -46 130 C-47.6953125 127.95703125 -47.6953125 127.95703125 -49.125 125.8125 C-49.60195313 125.11769531 -50.07890625 124.42289063 -50.5703125 123.70703125 C-54.19289893 116.84787171 -55.44573714 110.38922258 -55.38818359 102.69165039 C-55.39344055 101.80907059 -55.39869751 100.92649078 -55.40411377 100.01716614 C-55.4172151 97.12714437 -55.40861009 94.2376827 -55.3984375 91.34765625 C-55.40046125 89.32181188 -55.40337519 87.29596823 -55.40713501 85.27012634 C-55.41154517 81.03458689 -55.40517016 76.79923792 -55.39111328 72.5637207 C-55.37403329 67.15597118 -55.38386356 61.74866881 -55.40183067 56.34093571 C-55.41271325 52.16028016 -55.4092015 47.97972919 -55.4014473 43.79907036 C-55.39945707 41.80612573 -55.4018628 39.81317136 -55.40888596 37.82023811 C-55.44823574 23.51600803 -55.44385194 11.85911444 -45 1 C-31.64245219 -10.83676438 -14.02212919 -10.98877063 0 0 Z " fill="#5EAAED" transform="translate(678,178)"/>
<path d="M0 0 C7.34698717 4.97220344 11.93284222 11.48725824 14.8125 19.8125 C15.3319372 23.01666922 15.36136998 26.13915417 15.33007812 29.38037109 C15.3370874 30.29060532 15.34409668 31.20083954 15.35131836 32.13865662 C15.3687967 35.1214021 15.35730978 38.10318382 15.34375 41.0859375 C15.3464483 43.17664775 15.35033352 45.26735677 15.35534668 47.35806274 C15.3612284 51.73069253 15.3527232 56.10299442 15.33398438 60.47558594 C15.31122425 66.05598327 15.3243081 71.63560969 15.34827423 77.21597862 C15.36279223 81.53137929 15.35809828 85.84660002 15.34776306 90.16200638 C15.34511087 92.21831989 15.34831194 94.27465019 15.35768127 96.33094406 C15.41026505 111.11653577 14.97251485 122.56469825 4.17578125 133.71484375 C0.94434679 136.58307566 -2.11311076 138.41370768 -6.1875 139.8125 C-6.82300781 140.03421875 -7.45851563 140.2559375 -8.11328125 140.484375 C-18.53831226 143.57636817 -27.71374779 141.70686897 -37.2265625 136.75 C-44.57728117 132.08698903 -48.85557425 124.01251321 -51.1875 115.8125 C-51.59122762 112.64375531 -51.60854647 109.51787341 -51.59155273 106.32641602 C-51.59841599 105.41311523 -51.60527924 104.49981445 -51.61235046 103.55883789 C-51.63054516 100.56119933 -51.62679147 97.5640878 -51.62109375 94.56640625 C-51.62565899 92.46947562 -51.63096558 90.37254649 -51.63697815 88.27561951 C-51.64589483 83.88868111 -51.64350243 79.50192489 -51.63354492 75.11499023 C-51.62205603 69.50861287 -51.64227326 63.90286543 -51.67146206 58.29657078 C-51.68985637 53.96839948 -51.68952515 49.64037825 -51.68382454 45.31217766 C-51.68367173 43.24582981 -51.68968271 41.17947153 -51.70211601 39.11316109 C-51.71708559 36.21770446 -51.70630517 33.32340044 -51.68920898 30.42797852 C-51.69887695 29.5845842 -51.70854492 28.74118988 -51.71850586 27.87223816 C-51.60470258 18.61262504 -47.53640228 10.48518222 -41.1875 3.8125 C-28.54070335 -6.55834252 -14.41596613 -8.22182269 0 0 Z " fill="#5EAAED" transform="translate(386.1875,175.1875)"/>
<path d="M0 0 C0.99 0.33 1.98 0.66 3 1 C0.03 3.97 -2.94 6.94 -6 10 C-6.33 9.01 -6.66 8.02 -7 7 C-4.69 4.69 -2.38 2.38 0 0 Z " fill="#355A84" transform="translate(758,591)"/>
<path d="M0 0 C0.99 0.33 1.98 0.66 3 1 C0.03 3.475 0.03 3.475 -3 6 C-3.66 5.67 -4.32 5.34 -5 5 C-3.35 3.35 -1.7 1.7 0 0 Z " fill="#3C6089" transform="translate(786,563)"/>
</svg>
